<mxfile host="app.diagrams.net" agent="Mozilla/5.0 (Windows NT 10.0; Win64; x64; rv:132.0) Gecko/20100101 Firefox/132.0" version="24.8.4">
  <diagram name="Page-1" id="sKxUVBKtmLyCFEgQFRDZ">
    <mxGraphModel dx="1541" dy="1296" grid="1" gridSize="10" guides="1" tooltips="1" connect="1" arrows="1" fold="1" page="1" pageScale="1" pageWidth="850" pageHeight="1100" math="0" shadow="0">
      <root>
        <mxCell id="0" />
        <mxCell id="1" parent="0" />
        <mxCell id="7ufP_1pFX3rXTHtE4leD-176" value="" style="rounded=0;whiteSpace=wrap;html=1;" parent="1" vertex="1">
          <mxGeometry x="880" y="40" width="670" height="520" as="geometry" />
        </mxCell>
        <mxCell id="7ufP_1pFX3rXTHtE4leD-173" style="edgeStyle=orthogonalEdgeStyle;rounded=0;orthogonalLoop=1;jettySize=auto;html=1;exitX=1;exitY=0.75;exitDx=0;exitDy=0;entryX=0;entryY=0.25;entryDx=0;entryDy=0;" parent="1" source="7ufP_1pFX3rXTHtE4leD-137" target="7ufP_1pFX3rXTHtE4leD-151" edge="1">
          <mxGeometry relative="1" as="geometry" />
        </mxCell>
        <mxCell id="7ufP_1pFX3rXTHtE4leD-174" style="edgeStyle=orthogonalEdgeStyle;rounded=0;orthogonalLoop=1;jettySize=auto;html=1;entryX=0;entryY=0.5;entryDx=0;entryDy=0;" parent="1" source="7ufP_1pFX3rXTHtE4leD-137" target="7ufP_1pFX3rXTHtE4leD-150" edge="1">
          <mxGeometry relative="1" as="geometry" />
        </mxCell>
        <mxCell id="7ufP_1pFX3rXTHtE4leD-137" value="Upcoming Bookings" style="rounded=0;whiteSpace=wrap;html=1;" parent="1" vertex="1">
          <mxGeometry x="1220" y="130" width="120" height="60" as="geometry" />
        </mxCell>
        <mxCell id="7ufP_1pFX3rXTHtE4leD-138" value="Bookings" style="rounded=0;whiteSpace=wrap;html=1;" parent="1" vertex="1">
          <mxGeometry x="920" y="210" width="120" height="60" as="geometry" />
        </mxCell>
        <mxCell id="7ufP_1pFX3rXTHtE4leD-171" style="edgeStyle=orthogonalEdgeStyle;rounded=0;orthogonalLoop=1;jettySize=auto;html=1;entryX=0;entryY=0.5;entryDx=0;entryDy=0;" parent="1" source="7ufP_1pFX3rXTHtE4leD-140" target="7ufP_1pFX3rXTHtE4leD-151" edge="1">
          <mxGeometry relative="1" as="geometry" />
        </mxCell>
        <mxCell id="7ufP_1pFX3rXTHtE4leD-140" value="Inactive Mentor&#39;s Availability" style="rounded=0;whiteSpace=wrap;html=1;" parent="1" vertex="1">
          <mxGeometry x="1220" y="210" width="120" height="60" as="geometry" />
        </mxCell>
        <mxCell id="7ufP_1pFX3rXTHtE4leD-143" value="Mentor Applications" style="rounded=0;whiteSpace=wrap;html=1;" parent="1" vertex="1">
          <mxGeometry x="920" y="370" width="120" height="60" as="geometry" />
        </mxCell>
        <mxCell id="7ufP_1pFX3rXTHtE4leD-160" style="edgeStyle=orthogonalEdgeStyle;rounded=0;orthogonalLoop=1;jettySize=auto;html=1;entryX=0;entryY=0.5;entryDx=0;entryDy=0;" parent="1" source="7ufP_1pFX3rXTHtE4leD-146" target="7ufP_1pFX3rXTHtE4leD-149" edge="1">
          <mxGeometry relative="1" as="geometry" />
        </mxCell>
        <mxCell id="7ufP_1pFX3rXTHtE4leD-146" value="Mentor Waitlists" style="rounded=0;whiteSpace=wrap;html=1;" parent="1" vertex="1">
          <mxGeometry x="920" y="290" width="120" height="60" as="geometry" />
        </mxCell>
        <mxCell id="7ufP_1pFX3rXTHtE4leD-162" style="edgeStyle=orthogonalEdgeStyle;rounded=0;orthogonalLoop=1;jettySize=auto;html=1;entryX=0;entryY=0.5;entryDx=0;entryDy=0;" parent="1" source="7ufP_1pFX3rXTHtE4leD-149" target="7ufP_1pFX3rXTHtE4leD-156" edge="1">
          <mxGeometry relative="1" as="geometry" />
        </mxCell>
        <mxCell id="7ufP_1pFX3rXTHtE4leD-164" style="edgeStyle=orthogonalEdgeStyle;rounded=0;orthogonalLoop=1;jettySize=auto;html=1;exitX=1;exitY=0.3;exitDx=0;exitDy=0;entryX=0;entryY=0.5;entryDx=0;entryDy=0;" parent="1" source="7ufP_1pFX3rXTHtE4leD-149" target="7ufP_1pFX3rXTHtE4leD-140" edge="1">
          <mxGeometry relative="1" as="geometry" />
        </mxCell>
        <mxCell id="7ufP_1pFX3rXTHtE4leD-165" style="edgeStyle=orthogonalEdgeStyle;rounded=0;orthogonalLoop=1;jettySize=auto;html=1;exitX=1;exitY=0.7;exitDx=0;exitDy=0;entryX=0;entryY=0.5;entryDx=0;entryDy=0;" parent="1" source="7ufP_1pFX3rXTHtE4leD-149" target="7ufP_1pFX3rXTHtE4leD-154" edge="1">
          <mxGeometry relative="1" as="geometry" />
        </mxCell>
        <mxCell id="7ufP_1pFX3rXTHtE4leD-166" style="edgeStyle=orthogonalEdgeStyle;rounded=0;orthogonalLoop=1;jettySize=auto;html=1;exitX=0.85;exitY=0.95;exitDx=0;exitDy=0;exitPerimeter=0;entryX=0;entryY=0.5;entryDx=0;entryDy=0;" parent="1" source="7ufP_1pFX3rXTHtE4leD-149" target="7ufP_1pFX3rXTHtE4leD-157" edge="1">
          <mxGeometry relative="1" as="geometry">
            <Array as="points">
              <mxPoint x="1165" y="480" />
            </Array>
          </mxGeometry>
        </mxCell>
        <mxCell id="7ufP_1pFX3rXTHtE4leD-167" style="edgeStyle=orthogonalEdgeStyle;rounded=0;orthogonalLoop=1;jettySize=auto;html=1;exitX=0.85;exitY=0.05;exitDx=0;exitDy=0;exitPerimeter=0;entryX=0;entryY=0.5;entryDx=0;entryDy=0;" parent="1" source="7ufP_1pFX3rXTHtE4leD-149" target="7ufP_1pFX3rXTHtE4leD-137" edge="1">
          <mxGeometry relative="1" as="geometry">
            <Array as="points">
              <mxPoint x="1165" y="160" />
            </Array>
          </mxGeometry>
        </mxCell>
        <mxCell id="7ufP_1pFX3rXTHtE4leD-149" value="Cron Jobs" style="shape=datastore;whiteSpace=wrap;html=1;" parent="1" vertex="1">
          <mxGeometry x="1080" y="290" width="100" height="60" as="geometry" />
        </mxCell>
        <mxCell id="7ufP_1pFX3rXTHtE4leD-150" value="Mentee" style="rounded=1;whiteSpace=wrap;html=1;" parent="1" vertex="1">
          <mxGeometry x="1380" y="130" width="120" height="60" as="geometry" />
        </mxCell>
        <mxCell id="7ufP_1pFX3rXTHtE4leD-151" value="Mentor" style="rounded=1;whiteSpace=wrap;html=1;" parent="1" vertex="1">
          <mxGeometry x="1380" y="210" width="120" height="60" as="geometry" />
        </mxCell>
        <mxCell id="7ufP_1pFX3rXTHtE4leD-153" value="Admin" style="rounded=1;whiteSpace=wrap;html=1;" parent="1" vertex="1">
          <mxGeometry x="1380" y="370" width="120" height="60" as="geometry" />
        </mxCell>
        <mxCell id="7ufP_1pFX3rXTHtE4leD-169" style="edgeStyle=orthogonalEdgeStyle;rounded=0;orthogonalLoop=1;jettySize=auto;html=1;entryX=0;entryY=0.5;entryDx=0;entryDy=0;" parent="1" source="7ufP_1pFX3rXTHtE4leD-154" target="7ufP_1pFX3rXTHtE4leD-153" edge="1">
          <mxGeometry relative="1" as="geometry" />
        </mxCell>
        <mxCell id="7ufP_1pFX3rXTHtE4leD-154" value="Pending Mentor Applications" style="rounded=0;whiteSpace=wrap;html=1;" parent="1" vertex="1">
          <mxGeometry x="1220" y="370" width="120" height="60" as="geometry" />
        </mxCell>
        <mxCell id="7ufP_1pFX3rXTHtE4leD-170" style="edgeStyle=orthogonalEdgeStyle;rounded=0;orthogonalLoop=1;jettySize=auto;html=1;entryX=0;entryY=0.75;entryDx=0;entryDy=0;" parent="1" source="7ufP_1pFX3rXTHtE4leD-156" target="7ufP_1pFX3rXTHtE4leD-151" edge="1">
          <mxGeometry relative="1" as="geometry" />
        </mxCell>
        <mxCell id="7ufP_1pFX3rXTHtE4leD-156" value="Mentor Wailist" style="rounded=0;whiteSpace=wrap;html=1;" parent="1" vertex="1">
          <mxGeometry x="1220" y="290" width="120" height="60" as="geometry" />
        </mxCell>
        <mxCell id="7ufP_1pFX3rXTHtE4leD-168" style="edgeStyle=orthogonalEdgeStyle;rounded=0;orthogonalLoop=1;jettySize=auto;html=1;entryX=0;entryY=0.5;entryDx=0;entryDy=0;" parent="1" source="7ufP_1pFX3rXTHtE4leD-157" target="7ufP_1pFX3rXTHtE4leD-158" edge="1">
          <mxGeometry relative="1" as="geometry" />
        </mxCell>
        <mxCell id="7ufP_1pFX3rXTHtE4leD-157" value="Mentor Acquisition Progress" style="rounded=0;whiteSpace=wrap;html=1;" parent="1" vertex="1">
          <mxGeometry x="1220" y="450" width="120" height="60" as="geometry" />
        </mxCell>
        <mxCell id="7ufP_1pFX3rXTHtE4leD-158" value="Prospective Mentor" style="rounded=1;whiteSpace=wrap;html=1;" parent="1" vertex="1">
          <mxGeometry x="1380" y="450" width="120" height="60" as="geometry" />
        </mxCell>
        <mxCell id="7ufP_1pFX3rXTHtE4leD-159" style="edgeStyle=orthogonalEdgeStyle;rounded=0;orthogonalLoop=1;jettySize=auto;html=1;entryX=0.15;entryY=0.05;entryDx=0;entryDy=0;entryPerimeter=0;" parent="1" source="7ufP_1pFX3rXTHtE4leD-138" target="7ufP_1pFX3rXTHtE4leD-149" edge="1">
          <mxGeometry relative="1" as="geometry" />
        </mxCell>
        <mxCell id="7ufP_1pFX3rXTHtE4leD-161" style="edgeStyle=orthogonalEdgeStyle;rounded=0;orthogonalLoop=1;jettySize=auto;html=1;exitX=1;exitY=0.5;exitDx=0;exitDy=0;entryX=0.15;entryY=0.95;entryDx=0;entryDy=0;entryPerimeter=0;" parent="1" source="7ufP_1pFX3rXTHtE4leD-143" target="7ufP_1pFX3rXTHtE4leD-149" edge="1">
          <mxGeometry relative="1" as="geometry" />
        </mxCell>
        <mxCell id="7ufP_1pFX3rXTHtE4leD-175" value="&lt;h1 style=&quot;margin-top: 0px;&quot;&gt;I/O&lt;/h1&gt;&lt;p&gt;this diagram does not emphasize the difference between &lt;b&gt;stored schedules&lt;/b&gt; and &lt;b&gt;schedules created while the app is running&lt;/b&gt;&lt;br&gt;&lt;/p&gt;" style="text;html=1;whiteSpace=wrap;overflow=hidden;rounded=0;" parent="1" vertex="1">
          <mxGeometry x="920" y="62.5" width="200" height="115" as="geometry" />
        </mxCell>
        <mxCell id="7ufP_1pFX3rXTHtE4leD-178" value="&lt;div&gt;it looks neat&lt;/div&gt;&lt;div&gt;&lt;br&gt;&lt;/div&gt;&lt;div&gt;but it &lt;b&gt;does not help the developer to understand the intersubjective reality of the algorithm&lt;/b&gt; they are intending to create&lt;br&gt;&lt;/div&gt;" style="text;html=1;whiteSpace=wrap;overflow=hidden;rounded=0;" parent="1" vertex="1">
          <mxGeometry x="920" y="450" width="200" height="90" as="geometry" />
        </mxCell>
      </root>
    </mxGraphModel>
  </diagram>
</mxfile>
